<svg width="31" height="37" viewBox="0 0 31 37" fill="none" xmlns="http://www.w3.org/2000/svg">
<path d="M16.9671 0.036581C17.3105 0.174565 17.613 0.314253 17.9352 0.489626C18.0258 0.536899 18.1164 0.584171 18.2097 0.632876C18.4014 0.732964 18.5926 0.833789 18.7835 0.935303C19.159 1.13403 19.5375 1.32656 19.9162 1.5191C20.3955 1.76304 20.8736 2.00946 21.3519 2.25558C21.4526 2.3074 21.5533 2.35921 21.6571 2.4126C24.588 3.92036 24.588 3.92036 25.8754 4.60767C26.1009 4.72782 26.3267 4.84737 26.5527 4.96659C26.9504 5.17667 27.3472 5.38841 27.7439 5.60051C27.867 5.66524 27.99 5.72997 28.1168 5.79666C29.0587 6.30415 29.8861 6.87746 30.2613 7.92635C30.3405 8.57958 30.3347 9.23185 30.3315 9.88887C30.3324 10.0885 30.3335 10.2882 30.3349 10.4879C30.3379 11.0286 30.3375 11.5693 30.3363 12.11C30.3356 12.5625 30.3366 13.015 30.3376 13.4676C30.3398 14.5362 30.3393 15.6048 30.3371 16.6734C30.3349 17.7727 30.337 18.8719 30.3412 19.9712C30.3448 20.9174 30.3457 21.8637 30.3446 22.8099C30.3439 23.374 30.3442 23.938 30.3469 24.502C30.3494 25.0332 30.3485 25.5643 30.3453 26.0954C30.3447 26.2892 30.3451 26.483 30.3468 26.6768C30.3579 28.0728 30.1608 29.3152 29.307 30.4615C28.1136 31.5995 26.9665 32.0726 25.3222 32.0374C24.6636 31.9694 24.1338 31.763 23.5484 31.4641C23.4639 31.4236 23.3794 31.3831 23.2923 31.3414C23.1127 31.2542 22.9353 31.1626 22.7586 31.0697C22.7701 31.1988 22.7701 31.1988 22.7817 31.3306C22.8424 32.5574 22.5036 33.6256 21.7467 34.6036C20.9673 35.4265 19.8691 36.0031 18.742 36.1107C17.163 36.1272 16.1524 35.6685 14.7793 34.9426C13.5902 34.3157 12.3944 33.7026 11.1964 33.0927C9.6012 32.2801 8.00958 31.4645 6.44434 30.5951C5.74639 30.2093 5.0416 29.8397 4.33104 29.4778C4.23877 29.4308 4.14651 29.3837 4.05145 29.3352C3.59371 29.1018 3.13543 28.8696 2.67621 28.6392C2.50797 28.5537 2.33976 28.4682 2.17156 28.3827C1.94899 28.2707 1.94899 28.2707 1.72192 28.1565C0.959228 27.7139 0.430914 27.3031 0.119024 26.4673C0.0585047 25.9067 0.0596729 25.3483 0.0595745 24.7848C0.0580368 24.6154 0.0564992 24.446 0.0549149 24.2714C0.0508765 23.8082 0.049399 23.345 0.0486445 22.8817C0.0480703 22.5921 0.0469661 22.3024 0.0456821 22.0128C0.0412456 21.0015 0.0389858 19.9903 0.0386224 18.979C0.0382226 18.0374 0.0328933 17.0958 0.0253084 16.1542C0.0190177 15.3447 0.0162821 14.5351 0.0162744 13.7256C0.0162037 13.2425 0.0146833 12.7595 0.0095381 12.2765C0.00393599 11.7379 0.0057139 11.1995 0.0081583 10.6608C0.00546606 10.5013 0.00277382 10.3419 0 10.1776C0.0131457 9.12508 0.0131453 9.12508 0.318096 8.70238C0.681233 8.3779 0.944284 8.20999 1.42349 8.10702C1.98371 8.22042 2.43806 8.45005 2.94023 8.71738C3.04503 8.77158 3.14982 8.82579 3.25779 8.88164C3.59166 9.05483 3.92431 9.23023 4.257 9.40568C4.48016 9.52173 4.70339 9.63765 4.9267 9.75342C5.83411 10.2254 6.73614 10.7017 7.62167 11.2137C7.61948 11.0953 7.61948 11.0953 7.61725 10.9744C7.60266 10.1511 7.59275 9.3277 7.58552 8.50421C7.58222 8.19707 7.57773 7.88994 7.57203 7.58284C7.56402 7.14085 7.56031 6.69901 7.5574 6.25696C7.55401 6.12009 7.55061 5.98323 7.54711 5.84221C7.5467 4.77551 7.5467 4.77551 7.9383 4.29126C8.42355 3.85106 8.42355 3.85106 8.78938 3.84772C9.56389 3.92012 10.143 4.13018 10.8234 4.4982C10.9221 4.54962 11.0208 4.60103 11.1225 4.654C11.4346 4.81706 11.7452 4.9827 12.0558 5.14849C12.2656 5.25876 12.4754 5.36886 12.6854 5.47877C13.0711 5.6809 13.4562 5.88412 13.8408 6.08842C14.2654 6.31331 14.6935 6.53017 15.1243 6.74288C15.1202 6.49215 15.1202 6.49215 15.116 6.23635C15.1064 5.61439 15.1004 4.99244 15.0954 4.37043C15.0928 4.10156 15.0892 3.8327 15.0846 3.56386C15.0782 3.17672 15.0752 2.78967 15.0729 2.40248C15.0702 2.28287 15.0675 2.16326 15.0647 2.04003C15.0644 1.30586 15.151 0.876838 15.6508 0.299573C16.1471 -0.0309544 16.3774 -0.0165712 16.9671 0.036581Z" fill="#9A4B5A"/>
<path d="M1.83016 8.1894C2.19712 8.32926 2.53861 8.50487 2.8847 8.6897C2.98493 8.7416 3.08515 8.79351 3.18842 8.84698C3.51252 9.01528 3.83539 9.18582 4.15828 9.35643C4.38137 9.47284 4.60454 9.58911 4.82778 9.70523C5.36215 9.98365 5.8956 10.2638 6.42863 10.5447C6.77572 10.7276 7.12334 10.9094 7.47103 11.091C7.85547 11.2923 8.23934 11.4945 8.62275 11.6977C9.19422 12.0001 9.76851 12.2971 10.3427 12.5942C10.9726 12.9208 11.6009 13.2502 12.2286 13.5807C12.3912 13.6661 12.3912 13.6661 12.5571 13.7531C12.849 13.9074 13.1395 14.064 13.4296 14.2218C13.5129 14.2655 13.5962 14.3093 13.6819 14.3543C14.3692 14.7343 14.8715 15.1899 15.1243 15.9477C15.1363 16.2045 15.1404 16.4618 15.1402 16.719C15.1404 16.9604 15.1404 16.9604 15.1407 17.2068C15.1402 17.3854 15.1398 17.5641 15.1393 17.7427C15.1392 17.9306 15.1393 18.1186 15.1393 18.3065C15.1394 18.8169 15.1386 19.3274 15.1377 19.8378C15.1368 20.3712 15.1368 20.9045 15.1366 21.4378C15.1362 22.448 15.1351 23.4581 15.1338 24.4682C15.1323 25.6181 15.1316 26.768 15.1309 27.9179C15.1296 30.2834 15.1273 32.649 15.1243 35.0146C14.5975 34.8434 14.1162 34.6559 13.6255 34.3982C13.4926 34.3287 13.3596 34.2593 13.2225 34.1877C13.0818 34.1134 12.9412 34.0391 12.7962 33.9626C12.649 33.8855 12.5018 33.8083 12.3501 33.7289C12.0521 33.5726 11.7542 33.4161 11.4564 33.2593C11.105 33.0743 10.7533 32.89 10.4012 32.7062C9.49624 32.2331 8.59396 31.7551 7.69417 31.2721C7.54298 31.1909 7.39179 31.1098 7.23602 31.0262C7.00123 30.9001 6.76647 30.774 6.53178 30.6478C5.64503 30.1709 4.75585 29.6999 3.85904 29.2421C3.7375 29.1799 3.7375 29.1799 3.6135 29.1165C3.22612 28.9183 2.83828 28.7213 2.44946 28.526C0.526551 27.5455 0.526551 27.5455 0.119024 26.4674C0.0582389 25.9068 0.0596729 25.3483 0.0595745 24.7849C0.0580368 24.6154 0.0564992 24.446 0.0549149 24.2715C0.0508765 23.8082 0.0493984 23.345 0.0486439 22.8818C0.0480697 22.5921 0.0469666 22.3025 0.0456826 22.0128C0.0412461 21.0016 0.0389858 19.9903 0.0386224 18.9791C0.0382226 18.0374 0.0328935 17.0959 0.0253087 16.1543C0.019018 15.3447 0.0162814 14.5352 0.0162737 13.7256C0.0162029 13.2426 0.0146828 12.7596 0.0095376 12.2766C0.00393549 11.7379 0.0057139 11.1995 0.0081583 10.6609C0.00546606 10.5014 0.00277382 10.3419 0 10.1777C0.0131441 9.12526 0.0131441 9.12526 0.317975 8.70238C0.804799 8.26712 1.16158 8.05579 1.83016 8.1894Z" fill="#E4A068"/>
<path d="M16.4541 0C17.0331 0.0412324 17.4359 0.217828 17.9353 0.489579C18.0259 0.536851 18.1164 0.584124 18.2098 0.632829C18.4014 0.732917 18.5927 0.833741 18.7836 0.935256C19.159 1.13398 19.5375 1.32651 19.9162 1.51905C20.3956 1.76299 20.8736 2.00941 21.3519 2.25553C21.503 2.33326 21.503 2.33326 21.6572 2.41256C24.5881 3.92032 24.5881 3.92032 25.8754 4.60763C26.1009 4.72777 26.3267 4.84732 26.5527 4.96654C26.9504 5.17662 27.3473 5.38836 27.7439 5.60046C27.867 5.66519 27.9901 5.72992 28.1169 5.79661C29.0587 6.3041 29.8861 6.87741 30.2613 7.9263C30.3405 8.57953 30.3347 9.23181 30.3315 9.88882C30.3324 10.0885 30.3336 10.2882 30.3349 10.4878C30.3379 11.0285 30.3375 11.5692 30.3363 12.1099C30.3357 12.5624 30.3366 13.015 30.3376 13.4675C30.3398 14.5361 30.3394 15.6047 30.3372 16.6733C30.3349 17.7726 30.337 18.8718 30.3413 19.9711C30.3448 20.9174 30.3457 21.8636 30.3446 22.8099C30.344 23.3739 30.3442 23.9379 30.347 24.502C30.3494 25.0332 30.3486 25.5642 30.3454 26.0954C30.3447 26.2892 30.3451 26.483 30.3468 26.6767C30.358 28.0728 30.1609 29.3152 29.307 30.4614C28.1142 31.5989 26.9663 32.0737 25.3222 32.0368C24.6656 31.9697 24.1235 31.7828 23.5484 31.4641C23.4138 31.4108 23.2791 31.3575 23.1404 31.3026C22.8236 31.0863 22.7652 30.9701 22.6867 30.589C22.6603 30.1073 22.6599 29.6289 22.6673 29.1469C22.6673 28.9609 22.667 28.7749 22.6663 28.5889C22.6656 28.1884 22.6673 27.788 22.6709 27.3876C22.6765 26.7536 22.6762 26.1197 22.6751 25.4858C22.6737 24.2535 22.678 23.0213 22.6832 21.789C22.6896 20.2229 22.6944 18.6569 22.6922 17.0908C22.6916 16.4614 22.6942 15.8321 22.6994 15.2027C22.702 14.8099 22.7018 14.417 22.701 14.0242C22.7013 13.757 22.7048 13.4898 22.7085 13.2226C22.7031 12.2207 22.5918 11.4935 21.9689 10.6877C21.5275 10.2595 21.0365 9.99843 20.4901 9.7205C20.4117 9.68027 20.3332 9.64004 20.2523 9.59859C20.0022 9.47056 19.7516 9.34354 19.5009 9.2166C19.1751 9.05062 18.8496 8.88423 18.524 8.71784C18.4019 8.65558 18.4019 8.65558 18.2773 8.59206C17.2644 8.07442 16.2603 7.5399 15.256 7.00582C15.2393 6.13772 15.2278 5.26966 15.2198 4.40143C15.2165 4.10614 15.212 3.81087 15.2063 3.51563C15.1983 3.09094 15.1946 2.6664 15.1917 2.24166C15.1883 2.10987 15.1849 1.97807 15.1814 1.84229C15.181 0.919862 15.181 0.919862 15.5808 0.416479C15.6908 0.334491 15.8008 0.252503 15.9141 0.16803C16.0457 0.0365338 16.0457 0.0365338 16.4541 0Z" fill="#602D49"/>
</svg>
