<svg width="177" height="37" viewBox="0 0 177 37" fill="none" xmlns="http://www.w3.org/2000/svg">
<path d="M16.9671 0.036581C17.3105 0.174565 17.613 0.314253 17.9352 0.489626C18.0258 0.536899 18.1164 0.584171 18.2097 0.632876C18.4014 0.732964 18.5926 0.833789 18.7835 0.935303C19.159 1.13403 19.5375 1.32656 19.9162 1.5191C20.3955 1.76304 20.8736 2.00946 21.3519 2.25558C21.4526 2.3074 21.5533 2.35921 21.6571 2.4126C24.588 3.92036 24.588 3.92036 25.8754 4.60767C26.1009 4.72782 26.3267 4.84737 26.5527 4.96659C26.9504 5.17667 27.3472 5.38841 27.7439 5.60051C27.867 5.66524 27.99 5.72997 28.1168 5.79666C29.0587 6.30415 29.8861 6.87746 30.2613 7.92635C30.3405 8.57958 30.3347 9.23185 30.3315 9.88887C30.3324 10.0885 30.3335 10.2882 30.3349 10.4879C30.3379 11.0286 30.3375 11.5693 30.3363 12.11C30.3356 12.5625 30.3366 13.015 30.3376 13.4676C30.3398 14.5362 30.3393 15.6048 30.3371 16.6734C30.3349 17.7727 30.337 18.8719 30.3412 19.9712C30.3448 20.9174 30.3457 21.8637 30.3446 22.8099C30.3439 23.374 30.3442 23.938 30.3469 24.502C30.3494 25.0332 30.3485 25.5643 30.3453 26.0954C30.3447 26.2892 30.3451 26.483 30.3468 26.6768C30.3579 28.0728 30.1608 29.3152 29.307 30.4615C28.1136 31.5995 26.9665 32.0726 25.3222 32.0374C24.6636 31.9694 24.1338 31.763 23.5484 31.4641C23.4639 31.4236 23.3794 31.3831 23.2923 31.3414C23.1127 31.2542 22.9353 31.1626 22.7586 31.0697C22.7701 31.1988 22.7701 31.1988 22.7817 31.3306C22.8424 32.5574 22.5036 33.6256 21.7467 34.6036C20.9673 35.4265 19.8691 36.0031 18.742 36.1107C17.163 36.1272 16.1524 35.6685 14.7793 34.9426C13.5902 34.3157 12.3944 33.7026 11.1964 33.0927C9.6012 32.2801 8.00958 31.4645 6.44434 30.5951C5.74639 30.2093 5.0416 29.8397 4.33104 29.4778C4.23877 29.4308 4.14651 29.3837 4.05145 29.3352C3.59371 29.1018 3.13543 28.8696 2.67621 28.6392C2.50797 28.5537 2.33976 28.4682 2.17156 28.3827C1.94899 28.2707 1.94899 28.2707 1.72192 28.1565C0.959228 27.7139 0.430914 27.3031 0.119024 26.4673C0.0585047 25.9067 0.0596729 25.3483 0.0595745 24.7848C0.0580368 24.6154 0.0564992 24.446 0.0549149 24.2714C0.0508765 23.8082 0.049399 23.345 0.0486445 22.8817C0.0480703 22.5921 0.0469661 22.3024 0.0456821 22.0128C0.0412456 21.0015 0.0389858 19.9903 0.0386224 18.979C0.0382226 18.0374 0.0328933 17.0958 0.0253084 16.1542C0.0190177 15.3447 0.0162821 14.5351 0.0162744 13.7256C0.0162037 13.2425 0.0146833 12.7595 0.0095381 12.2765C0.00393599 11.7379 0.0057139 11.1995 0.0081583 10.6608C0.00546606 10.5013 0.00277382 10.3419 0 10.1776C0.0131457 9.12508 0.0131453 9.12508 0.318096 8.70238C0.681233 8.3779 0.944284 8.20999 1.42349 8.10702C1.98371 8.22042 2.43806 8.45005 2.94023 8.71738C3.04503 8.77158 3.14982 8.82579 3.25779 8.88164C3.59166 9.05483 3.92431 9.23023 4.257 9.40568C4.48016 9.52173 4.70339 9.63765 4.9267 9.75342C5.83411 10.2254 6.73614 10.7017 7.62167 11.2137C7.61948 11.0953 7.61948 11.0953 7.61725 10.9744C7.60266 10.1511 7.59275 9.3277 7.58552 8.50421C7.58222 8.19707 7.57773 7.88994 7.57203 7.58284C7.56402 7.14085 7.56031 6.69901 7.5574 6.25696C7.55401 6.12009 7.55061 5.98323 7.54711 5.84221C7.5467 4.77551 7.5467 4.77551 7.9383 4.29126C8.42355 3.85106 8.42355 3.85106 8.78938 3.84772C9.56389 3.92012 10.143 4.13018 10.8234 4.4982C10.9221 4.54962 11.0208 4.60103 11.1225 4.654C11.4346 4.81706 11.7452 4.9827 12.0558 5.14849C12.2656 5.25876 12.4754 5.36886 12.6854 5.47877C13.0711 5.6809 13.4562 5.88412 13.8408 6.08842C14.2654 6.31331 14.6935 6.53017 15.1243 6.74288C15.1202 6.49215 15.1202 6.49215 15.116 6.23635C15.1064 5.61439 15.1004 4.99244 15.0954 4.37043C15.0928 4.10156 15.0892 3.8327 15.0846 3.56386C15.0782 3.17672 15.0752 2.78967 15.0729 2.40248C15.0702 2.28287 15.0675 2.16326 15.0647 2.04003C15.0644 1.30586 15.151 0.876838 15.6508 0.299573C16.1471 -0.0309544 16.3774 -0.0165712 16.9671 0.036581Z" fill="#9A4B5A"/>
<path d="M1.83016 8.18934C2.19712 8.3292 2.53861 8.50481 2.8847 8.68964C2.98493 8.74154 3.08515 8.79345 3.18842 8.84692C3.51252 9.01522 3.83539 9.18576 4.15828 9.35637C4.38137 9.47278 4.60454 9.58904 4.82778 9.70517C5.36215 9.98359 5.8956 10.2637 6.42863 10.5447C6.77572 10.7275 7.12334 10.9093 7.47103 11.091C7.85547 11.2922 8.23934 11.4944 8.62275 11.6976C9.19422 12.0001 9.76851 12.297 10.3427 12.5942C10.9726 12.9207 11.6009 13.2501 12.2286 13.5807C12.3912 13.666 12.3912 13.666 12.5571 13.7531C12.849 13.9073 13.1395 14.064 13.4296 14.2217C13.5129 14.2655 13.5962 14.3092 13.6819 14.3543C14.3692 14.7342 14.8715 15.1898 15.1243 15.9476C15.1363 16.2045 15.1404 16.4618 15.1402 16.7189C15.1404 16.9604 15.1404 16.9604 15.1407 17.2067C15.1402 17.3854 15.1398 17.564 15.1393 17.7427C15.1392 17.9306 15.1393 18.1185 15.1393 18.3064C15.1394 18.8169 15.1386 19.3273 15.1377 19.8378C15.1368 20.3711 15.1368 20.9044 15.1366 21.4378C15.1362 22.4479 15.1351 23.458 15.1338 24.4681C15.1323 25.618 15.1316 26.7679 15.1309 27.9178C15.1296 30.2834 15.1273 32.649 15.1243 35.0145C14.5975 34.8434 14.1162 34.6558 13.6255 34.3981C13.4926 34.3287 13.3596 34.2592 13.2225 34.1876C13.0818 34.1133 12.9412 34.0391 12.7962 33.9626C12.649 33.8854 12.5018 33.8083 12.3501 33.7288C12.0521 33.5725 11.7542 33.416 11.4564 33.2592C11.105 33.0743 10.7533 32.89 10.4012 32.7062C9.49624 32.233 8.59396 31.755 7.69417 31.272C7.54298 31.1909 7.39179 31.1097 7.23602 31.0261C7.00123 30.9001 6.76647 30.774 6.53178 30.6477C5.64503 30.1709 4.75585 29.6998 3.85904 29.2421C3.7375 29.1799 3.7375 29.1799 3.6135 29.1164C3.22612 28.9183 2.83828 28.7212 2.44946 28.5259C0.526551 27.5454 0.526551 27.5454 0.119024 26.4673C0.0582389 25.9067 0.0596729 25.3483 0.0595745 24.7848C0.0580368 24.6154 0.0564992 24.446 0.0549149 24.2714C0.0508765 23.8082 0.0493984 23.345 0.0486439 22.8817C0.0480697 22.5921 0.0469666 22.3024 0.0456826 22.0128C0.0412461 21.0015 0.0389858 19.9903 0.0386224 18.979C0.0382226 18.0374 0.0328935 17.0958 0.0253087 16.1542C0.019018 15.3447 0.0162814 14.5351 0.0162737 13.7256C0.0162029 13.2425 0.0146828 12.7596 0.0095376 12.2765C0.00393549 11.7379 0.0057139 11.1995 0.0081583 10.6608C0.00546606 10.5013 0.00277382 10.3419 0 10.1776C0.0131441 9.1252 0.0131441 9.1252 0.317975 8.70232C0.804799 8.26706 1.16158 8.05573 1.83016 8.18934Z" fill="#E4A068"/>
<path d="M16.4541 0C17.0331 0.0412324 17.4359 0.217828 17.9353 0.489579C18.0259 0.536851 18.1164 0.584124 18.2098 0.632829C18.4014 0.732917 18.5927 0.833741 18.7836 0.935256C19.159 1.13398 19.5375 1.32651 19.9162 1.51905C20.3956 1.76299 20.8736 2.00941 21.3519 2.25553C21.503 2.33326 21.503 2.33326 21.6572 2.41256C24.5881 3.92032 24.5881 3.92032 25.8754 4.60763C26.1009 4.72777 26.3267 4.84732 26.5527 4.96654C26.9504 5.17662 27.3473 5.38836 27.7439 5.60046C27.867 5.66519 27.9901 5.72992 28.1169 5.79661C29.0587 6.3041 29.8861 6.87741 30.2613 7.9263C30.3405 8.57953 30.3347 9.23181 30.3315 9.88882C30.3324 10.0885 30.3336 10.2882 30.3349 10.4878C30.3379 11.0285 30.3375 11.5692 30.3363 12.1099C30.3357 12.5624 30.3366 13.015 30.3376 13.4675C30.3398 14.5361 30.3394 15.6047 30.3372 16.6733C30.3349 17.7726 30.337 18.8718 30.3413 19.9711C30.3448 20.9174 30.3457 21.8636 30.3446 22.8099C30.344 23.3739 30.3442 23.9379 30.347 24.502C30.3494 25.0332 30.3486 25.5642 30.3454 26.0954C30.3447 26.2892 30.3451 26.483 30.3468 26.6767C30.358 28.0728 30.1609 29.3152 29.307 30.4614C28.1142 31.5989 26.9663 32.0737 25.3222 32.0368C24.6656 31.9697 24.1235 31.7828 23.5484 31.4641C23.4138 31.4108 23.2791 31.3575 23.1404 31.3026C22.8236 31.0863 22.7652 30.9701 22.6867 30.589C22.6603 30.1073 22.6599 29.6289 22.6673 29.1469C22.6673 28.9609 22.667 28.7749 22.6663 28.5889C22.6656 28.1884 22.6673 27.788 22.6709 27.3876C22.6765 26.7536 22.6762 26.1197 22.6751 25.4858C22.6737 24.2535 22.678 23.0213 22.6832 21.789C22.6896 20.2229 22.6944 18.6569 22.6922 17.0908C22.6916 16.4614 22.6942 15.8321 22.6994 15.2027C22.702 14.8099 22.7018 14.417 22.701 14.0242C22.7013 13.757 22.7048 13.4898 22.7085 13.2226C22.7031 12.2207 22.5918 11.4935 21.9689 10.6877C21.5275 10.2595 21.0365 9.99843 20.4901 9.7205C20.4117 9.68027 20.3332 9.64004 20.2523 9.59859C20.0022 9.47056 19.7516 9.34354 19.5009 9.2166C19.1751 9.05062 18.8496 8.88423 18.524 8.71784C18.4019 8.65558 18.4019 8.65558 18.2773 8.59206C17.2644 8.07442 16.2603 7.5399 15.256 7.00582C15.2393 6.13772 15.2278 5.26966 15.2198 4.40143C15.2165 4.10614 15.212 3.81087 15.2063 3.51563C15.1983 3.09094 15.1946 2.6664 15.1917 2.24166C15.1883 2.10987 15.1849 1.97807 15.1814 1.84229C15.181 0.919862 15.181 0.919862 15.5808 0.416479C15.6908 0.334491 15.8008 0.252503 15.9141 0.16803C16.0457 0.0365338 16.0457 0.0365338 16.4541 0Z" fill="#602D49"/>
<path d="M39.6067 10.1345C40.6492 10.1345 41.6916 10.1345 42.7657 10.1345C42.8531 10.4962 42.9405 10.858 43.0305 11.2306C43.1175 11.5898 43.2047 11.9488 43.2919 12.3079C43.3514 12.5532 43.4107 12.7985 43.4699 13.0439C43.7974 14.4006 44.1375 15.7511 44.5172 17.0942C44.724 17.8274 44.9082 18.5636 45.0774 19.3064C45.2685 20.1197 45.462 20.9319 45.6779 21.739C45.7163 21.8835 45.7546 22.0279 45.7941 22.1767C45.8372 22.2818 45.8803 22.3869 45.9247 22.4951C46.055 22.5385 46.1853 22.5819 46.3196 22.6266C46.3636 22.3772 46.3636 22.3772 46.4085 22.1227C46.6303 21.0173 46.9565 19.9378 47.2656 18.8543C47.3311 18.6235 47.3966 18.3926 47.4621 18.1617C47.8467 16.809 48.2404 15.4595 48.6606 14.1173C48.8486 13.5144 49.016 12.9126 49.162 12.2983C49.3724 11.4198 49.5961 10.8792 50.2684 10.266C50.7239 10.0384 51.2172 10.0891 51.7162 10.1345C52.3828 10.3607 52.7236 10.6994 53.0325 11.318C53.207 11.834 53.3372 12.3593 53.4685 12.8877C53.5488 13.1982 53.6295 13.5086 53.7107 13.819C53.7512 13.9742 53.7917 14.1294 53.8335 14.2893C54.0061 14.9311 54.2001 15.5654 54.3981 16.1998C54.7629 17.376 55.1084 18.5571 55.4437 19.742C55.4977 19.9328 55.5519 20.1235 55.6063 20.3142C55.6825 20.5814 55.7579 20.8489 55.8331 21.1165C55.8769 21.2715 55.9207 21.4264 55.9657 21.5861C56.0599 21.9692 56.0599 21.9692 56.0599 22.3636C56.2336 22.3636 56.4074 22.3636 56.5864 22.3636C56.6121 22.1974 56.6121 22.1974 56.6383 22.0277C56.8861 20.6189 57.3057 19.2475 57.7246 17.8819C57.9816 17.0361 58.2101 16.185 58.4291 15.3286C58.71 14.2305 59.0155 13.1432 59.35 12.0602C59.3807 11.9605 59.4114 11.8609 59.4431 11.7582C59.4831 11.63 59.4831 11.63 59.5239 11.4993C59.6536 11.0477 59.7629 10.5904 59.877 10.1345C60.6589 10.1345 61.4407 10.1345 62.2463 10.1345C62.1592 10.6567 62.0714 11.1125 61.9234 11.6123C61.8856 11.7407 61.8478 11.8691 61.8089 12.0014C61.7686 12.1366 61.7284 12.2717 61.6869 12.411C61.6454 12.5516 61.6039 12.6921 61.5612 12.8369C61.4776 13.1201 61.3938 13.4032 61.3098 13.6863C61.1815 14.1192 61.054 14.5524 60.9268 14.9856C60.8225 15.3405 60.7178 15.6954 60.6132 16.0502C60.4773 16.5109 60.3417 16.9717 60.2061 17.4325C60.0447 17.9806 59.8834 18.5287 59.7217 19.0768C59.683 19.208 59.683 19.208 59.6435 19.342C59.5906 19.5217 59.5376 19.7013 59.4845 19.8809C59.3179 20.4458 59.1537 21.0113 58.9911 21.5772C58.9512 21.7155 58.9113 21.8537 58.8702 21.9961C58.7924 22.2659 58.7149 22.5359 58.6379 22.8059C57.8653 25.4789 57.8653 25.4789 57.1129 25.914C56.5523 26.1941 55.8777 26.1202 55.2701 26.0455C54.825 25.8792 54.6053 25.6531 54.3487 25.2566C54.0581 24.6185 53.874 23.9586 53.6906 23.2841C53.656 23.1584 53.6214 23.0326 53.5858 22.9031C53.3869 22.1776 53.192 21.4511 52.9991 20.724C52.8042 19.9916 52.601 19.262 52.3908 18.5338C52.0347 17.2997 51.6855 16.0638 51.3378 14.8273C51.3108 14.7312 51.2838 14.6352 51.2559 14.5362C51.1022 13.9895 50.9485 13.4427 50.7949 12.8959C50.7514 12.8959 50.708 12.8959 50.6632 12.8959C50.6395 12.9857 50.6157 13.0755 50.5912 13.168C50.1668 14.7669 49.7366 16.3617 49.2507 17.943C48.9789 18.8358 48.7384 19.7357 48.4996 20.6378C48.3451 21.2135 48.1887 21.7888 48.0307 22.3636C47.9734 22.5723 47.9734 22.5723 47.915 22.7852C47.8038 23.1828 47.6878 23.5787 47.57 23.9745C47.5211 24.1517 47.5211 24.1517 47.4711 24.3324C47.2303 25.1173 46.9093 25.6247 46.188 26.0455C45.4959 26.2285 44.911 26.1387 44.2876 25.799C43.4604 24.9545 43.2479 23.498 42.9631 22.3965C42.696 21.3776 42.4217 20.3619 42.1299 19.3498C41.9415 18.6954 41.7577 18.0398 41.5734 17.3843C41.5001 17.1242 41.4268 16.8641 41.3536 16.604C41.2411 16.2048 41.1287 15.8056 41.0166 15.4064C40.9063 15.0136 40.7957 14.6209 40.6849 14.2283C40.6493 14.1023 40.6137 13.9762 40.5771 13.8464C40.3116 12.9124 40.0241 11.9873 39.7203 11.0652C39.6067 10.6605 39.6067 10.6605 39.6067 10.1345Z" fill="#341638"/>
<path d="M161.755 10.1345C162.798 10.1345 163.84 10.1345 164.914 10.1345C164.958 12.2608 165.001 14.387 165.046 16.5778C167.652 16.5778 170.258 16.5778 172.943 16.5778C172.987 14.4515 173.03 12.3252 173.075 10.1345C174.074 10.1345 175.073 10.1345 176.102 10.1345C176.102 15.3851 176.102 20.6357 176.102 26.0455C175.103 26.0455 174.104 26.0455 173.075 26.0455C173.031 23.4419 172.988 20.8382 172.943 18.1557C170.337 18.1557 167.731 18.1557 165.046 18.1557C165.002 20.8027 164.959 23.4498 164.914 26.177C163.872 26.177 162.829 26.177 161.755 26.177C161.755 20.8829 161.755 15.5889 161.755 10.1345Z" fill="#331537"/>
<path d="M120.861 11.8686C122.101 13.0397 122.992 14.7252 123.076 16.4435C123.08 16.9129 123.082 17.3822 123.082 17.8516C123.083 18.0133 123.085 18.1749 123.087 18.3414C123.09 20.4686 122.578 22.4355 121.127 24.0551C119.278 25.8307 116.882 26.1119 114.443 26.101C112.416 26.0562 110.583 25.4681 109.075 24.0597C107.507 22.3822 107.083 20.2807 107.081 18.0653C107.078 17.8962 107.075 17.7271 107.071 17.5529C107.065 15.5938 107.651 13.6548 109.007 12.1881C112.07 9.3481 117.631 9.30575 120.861 11.8686ZM111.038 13.2657C110.742 13.824 110.578 14.3901 110.421 14.9998C110.375 15.1495 110.329 15.2992 110.281 15.4534C109.725 17.7034 109.951 20.6761 110.981 22.7745C111.529 23.6359 112.322 24.2986 113.287 24.6437C114.903 24.9736 116.67 24.9116 118.085 24.0201C119.237 23.1401 119.728 21.7398 119.968 20.3542C120.212 18.2844 120.275 16.0429 119.503 14.0793C119.467 13.9758 119.43 13.8722 119.393 13.7655C118.987 12.7844 118.113 12.0725 117.159 11.6467C114.861 10.9204 112.572 11.4024 111.038 13.2657Z" fill="#331637"/>
<path d="M76.067 10.1345C76.6667 10.4699 77.0472 10.8454 77.4573 11.3919C77.5123 11.4649 77.5673 11.5379 77.6239 11.6131C78.1834 12.3651 78.7063 13.1425 79.2314 13.9186C79.6945 14.6004 80.1736 15.2653 80.6739 15.9203C81.2473 16.6715 81.7897 17.4387 82.3192 18.2215C83.0475 19.298 83.8096 20.3441 84.6022 21.3742C84.7319 21.5451 84.8563 21.72 84.9794 21.8957C85.0354 21.9633 85.0914 22.0309 85.1491 22.1006C85.236 22.1006 85.3229 22.1006 85.4124 22.1006C85.4558 18.1518 85.4992 14.203 85.544 10.1345C86.0652 10.1345 86.5865 10.1345 87.1235 10.1345C87.1388 12.0194 87.1505 13.9043 87.1576 15.7892C87.161 16.6645 87.1657 17.5398 87.1732 18.4151C87.1803 19.26 87.1842 20.1049 87.1859 20.9499C87.1872 21.272 87.1895 21.5941 87.1931 21.9162C87.1979 22.3679 87.1985 22.8195 87.1982 23.2712C87.2006 23.4039 87.203 23.5366 87.2054 23.6734C87.1993 24.5149 87.0573 25.1545 86.4654 25.7825C86.0637 26.0194 85.7638 26.0875 85.2972 26.0948C85.189 26.0985 85.0807 26.1023 84.9692 26.1061C84.2934 25.9879 83.8669 25.5982 83.4704 25.0623C83.3458 24.8814 83.2226 24.6996 83.1007 24.5168C82.9622 24.315 82.8235 24.1134 82.6847 23.9118C82.6138 23.808 82.5429 23.7042 82.4698 23.5973C82.1209 23.0923 81.7592 22.5967 81.3978 22.1006C80.7776 21.2459 80.1654 20.3861 79.5576 19.5226C79.0096 18.7452 78.4533 17.9741 77.8939 17.205C77.5246 16.6963 77.1599 16.1851 76.8017 15.6686C76.7294 15.5647 76.6571 15.4608 76.5827 15.3537C76.4443 15.1543 76.3066 14.9543 76.1698 14.7538C76.0104 14.5243 75.8421 14.3011 75.6721 14.0793C75.5852 14.0793 75.4983 14.0793 75.4088 14.0793C75.3654 18.0716 75.322 22.0638 75.2772 26.177C74.756 26.177 74.2347 26.177 73.6977 26.177C73.6855 24.2532 73.6761 22.3295 73.6704 20.4057C73.6677 19.5124 73.664 18.6192 73.658 17.7259C73.6522 16.8639 73.6491 16.002 73.6478 15.14C73.6468 14.811 73.6449 14.4821 73.642 14.1532C73.6382 13.6926 73.6377 13.2321 73.6379 12.7715C73.636 12.6354 73.6342 12.4993 73.6322 12.3591C73.6367 11.5737 73.7028 11.1284 74.2242 10.529C74.7596 10.0705 75.3876 9.99293 76.067 10.1345Z" fill="#331637"/>
<path d="M127.006 10.1345C128.048 10.1345 129.091 10.1345 130.165 10.1345C130.166 10.4515 130.167 10.7685 130.169 11.0951C130.173 12.149 130.181 13.2029 130.189 14.2567C130.194 14.895 130.199 15.5332 130.201 16.1714C130.203 16.7887 130.207 17.406 130.213 18.0233C130.215 18.2574 130.216 18.4915 130.217 18.7256C130.218 20.4433 130.235 22.2393 131.446 23.5933C132.351 24.2501 133.201 24.4185 134.303 24.3936C134.476 24.395 134.476 24.395 134.653 24.3964C135.79 24.3855 136.897 24.1899 137.739 23.3765C139.009 21.8976 138.913 19.5893 138.92 17.7494C138.922 17.5282 138.924 17.3069 138.927 17.0857C138.933 16.5105 138.937 15.9353 138.94 15.36C138.944 14.7702 138.95 14.1804 138.956 13.5906C138.968 12.4386 138.976 11.2865 138.984 10.1345C139.635 10.1345 140.287 10.1345 140.958 10.1345C140.97 11.4891 140.98 12.8438 140.986 14.1985C140.988 14.8277 140.992 15.4569 140.998 16.0862C141.004 16.6949 141.007 17.3037 141.008 17.9125C141.009 18.1432 141.011 18.3739 141.014 18.6045C141.038 20.578 140.894 22.8186 139.51 24.3684C138.035 25.7649 136.117 26.1217 134.138 26.103C133.914 26.1014 133.914 26.1014 133.685 26.0997C131.79 26.0618 129.931 25.6711 128.536 24.2888C126.964 22.4266 126.965 20.3032 126.98 17.9806C126.981 17.753 126.981 17.5255 126.981 17.298C126.982 16.7051 126.985 16.1121 126.988 15.5192C126.991 14.9118 126.992 14.3043 126.993 13.6969C126.996 12.5094 127.001 11.3219 127.006 10.1345Z" fill="#341638"/>
<path d="M90.1509 10.1345C95.2764 10.1345 100.402 10.1345 105.683 10.1345C105.683 10.5684 105.683 11.0023 105.683 11.4494C102.62 11.5145 102.62 11.5145 99.4963 11.5809C99.4528 16.3542 99.4094 21.1275 99.3647 26.0455C98.3656 26.0455 97.3666 26.0455 96.3373 26.0455C96.2938 21.2288 96.2504 16.4121 96.2056 11.4494C94.2076 11.406 92.2095 11.3626 90.1509 11.3179C90.1509 10.9274 90.1509 10.5368 90.1509 10.1345Z" fill="#321436"/>
<path d="M157.938 11.055C157.894 11.3587 157.851 11.6625 157.806 11.9754C157.474 11.9345 157.143 11.8933 156.811 11.8522C156.718 11.8407 156.625 11.8293 156.53 11.8175C156.392 11.8003 156.392 11.8003 156.251 11.7828C156.158 11.7713 156.064 11.7597 155.968 11.7478C155.733 11.7168 155.5 11.6794 155.266 11.6411C153.321 11.4012 151.341 11.2998 149.697 12.486C148.41 13.6228 148.096 15.4787 147.934 17.1038C147.805 19.2855 148.08 21.4493 149.267 23.3334C150.492 24.4504 151.654 24.6246 153.241 24.6237C153.394 24.6238 153.548 24.6239 153.707 24.624C154.699 24.6179 155.648 24.5606 156.628 24.3936C157.026 24.3346 157.404 24.3265 157.806 24.3361C157.893 24.5964 157.98 24.8568 158.07 25.1251C155.753 26.2705 152.44 26.4558 149.958 25.7851C149.013 25.4475 148.201 25.0838 147.408 24.4676C147.287 24.3811 147.287 24.3811 147.164 24.2929C145.781 23.2315 145.083 21.4459 144.817 19.7686C144.564 17.1624 144.832 14.5881 146.495 12.4603C147.415 11.4979 148.74 10.6795 150.04 10.3975C150.15 10.371 150.259 10.3446 150.371 10.3174C152.773 9.8221 155.715 9.95584 157.938 11.055Z" fill="#341738"/>
<path d="M65.6685 10.1345C66.6676 10.1345 67.6666 10.1345 68.6959 10.1345C68.6959 15.3851 68.6959 20.6357 68.6959 26.0455C67.6969 26.0455 66.6978 26.0455 65.6685 26.0455C65.6685 20.7948 65.6685 15.5442 65.6685 10.1345Z" fill="#311335"/>
</svg>
